<?xml version="1.0" encoding="utf-8"?>
<!-- Generator: Adobe Illustrator 16.0.0, SVG Export Plug-In . SVG Version: 6.00 Build 0)  -->
<!DOCTYPE svg PUBLIC "-//W3C//DTD SVG 1.1//EN" "http://www.w3.org/Graphics/SVG/1.1/DTD/svg11.dtd">
<svg version="1.1" id="图层_1" xmlns="http://www.w3.org/2000/svg" xmlns:xlink="http://www.w3.org/1999/xlink" x="0px" y="0px"
	 width="14px" height="14px" viewBox="0 0 14 14" enable-background="new 0 0 14 14" xml:space="preserve">
<g>
	<g>
		<path fill="#666666" d="M6.879,7.558c1.509,0,2.732-1.739,2.732-3.19S8.388,1.74,6.879,1.74c-1.51,0-2.732,1.177-2.732,2.627
			S5.369,7.558,6.879,7.558z M10.562,9.079L9.345,8.496l-0.901,3.053c0,0-0.045,0.313-0.416,0.313c-0.372,0-0.529-0.313-0.529-0.313
			v-2.49c0,0,0-0.563-0.6-0.563c-0.601,0-0.621,0.563-0.621,0.563v2.49c0,0,0,0.264-0.46,0.264s-0.486-0.264-0.486-0.264
			l-0.92-3.053L3.195,9.079C2.535,9.396,2,10.228,2,10.938v0.777C2,12.424,2.598,13,3.336,13h7.086c0.737,0,1.336-0.576,1.336-1.285
			v-0.777C11.758,10.228,11.223,9.396,10.562,9.079z"/>
	</g>
</g>
</svg>
