<?xml version="1.0" encoding="utf-8"?>
<!-- Generator: Adobe Illustrator 16.0.0, SVG Export Plug-In . SVG Version: 6.00 Build 0)  -->
<!DOCTYPE svg PUBLIC "-//W3C//DTD SVG 1.1//EN" "http://www.w3.org/Graphics/SVG/1.1/DTD/svg11.dtd">
<svg version="1.1" id="图层_1" xmlns="http://www.w3.org/2000/svg" xmlns:xlink="http://www.w3.org/1999/xlink" x="0px" y="0px"
	 width="14px" height="14px" viewBox="0 0 14 14" enable-background="new 0 0 14 14" xml:space="preserve">
<path fill="#666666" d="M11.751,11.828l-0.004-9.739l0,0h-2.25L9.441,1.343L4.998,1.339v0.75h-2.25l0.004,9.752 M5.748,2.089h3v0.75
	h-3V2.089L5.748,2.089z M3.498,2.839h1.5v0.75h4.499v-0.75h1.5v8.249H3.498V2.839L3.498,2.839z M4.992,5.084h0.757v0.75H4.992V5.084
	L4.992,5.084z M6.498,5.106h2.99v0.729h-2.99V5.106L6.498,5.106z M4.992,6.594h0.757v0.75H4.992V6.594L4.992,6.594z M6.498,6.584
	h2.99v0.772h-2.99V6.584L6.498,6.584z M4.992,8.088h0.757v0.75H4.992V8.088L4.992,8.088z M6.498,8.07h2.99v0.773h-2.99V8.07
	L6.498,8.07z"/>
</svg>
