<?xml version="1.0" encoding="utf-8"?>
<!-- Generator: Adobe Illustrator 16.0.0, SVG Export Plug-In . SVG Version: 6.00 Build 0)  -->
<!DOCTYPE svg PUBLIC "-//W3C//DTD SVG 1.1//EN" "http://www.w3.org/Graphics/SVG/1.1/DTD/svg11.dtd">
<svg version="1.1" id="图层_1" xmlns="http://www.w3.org/2000/svg" xmlns:xlink="http://www.w3.org/1999/xlink" x="0px" y="0px"
	 width="14px" height="14px" viewBox="0 0 14 14" enable-background="new 0 0 14 14" xml:space="preserve">
<g>
	<g>
		<path fill="#666666" d="M8.416,3H2.334C2.149,3,2,3.135,2,3.301v0.153c0,0.167,0.149,0.301,0.334,0.301h6.082
			c0.185,0,0.335-0.134,0.335-0.301V3.301C8.751,3.135,8.601,3,8.416,3z M2.346,8.249h5.296c0.191,0,0.346-0.136,0.346-0.302V7.044
			c0-0.166-0.154-0.301-0.346-0.301H2.346C2.155,6.743,2,6.878,2,7.044v0.903C2,8.113,2.155,8.249,2.346,8.249z M8.416,11.256H2.334
			C2.149,11.256,2,11.39,2,11.553v0.142c0,0.165,0.149,0.298,0.334,0.298h6.082c0.185,0,0.335-0.133,0.335-0.298v-0.142
			C8.751,11.39,8.601,11.256,8.416,11.256z M12.019,5.414L9.19,7.68c-0.156,0.122-0.146,0.342,0,0.473l2.828,2.267
			c0.158,0.131,0.457,0.057,0.457-0.335V5.748C12.476,5.273,12.177,5.273,12.019,5.414z"/>
	</g>
</g>
</svg>
