<?xml version="1.0" encoding="utf-8"?>
<!-- Generator: Adobe Illustrator 16.0.0, SVG Export Plug-In . SVG Version: 6.00 Build 0)  -->
<!DOCTYPE svg PUBLIC "-//W3C//DTD SVG 1.1//EN" "http://www.w3.org/Graphics/SVG/1.1/DTD/svg11.dtd">
<svg version="1.1" id="图层_1" xmlns="http://www.w3.org/2000/svg" xmlns:xlink="http://www.w3.org/1999/xlink" x="0px" y="0px"
	 width="14px" height="14px" viewBox="0 0 14 14" enable-background="new 0 0 14 14" xml:space="preserve">
<path fill="#666666" d="M5.806,6.928l-3.59-1.867C2.143,5.022,2.062,5.007,1.989,5.007c-0.258,0-0.501,0.218-0.501,0.521v3.648
	c0,0.38,0.202,0.723,0.534,0.894l3.59,1.867C5.684,11.977,5.766,12,5.838,12c0.259,0,0.502-0.227,0.502-0.529V7.822
	C6.34,7.449,6.137,7.099,5.806,6.928z M5.531,11.012l-3.13-1.625c-0.049-0.031-0.105-0.102-0.105-0.21v-3.19l3.129,1.625
	c0.064,0.04,0.105,0.125,0.105,0.21V11.012z M11.498,5.007c-0.072,0-0.153,0.016-0.226,0.054L7.682,6.936
	C7.35,7.107,7.148,7.457,7.148,7.838v3.633C7.148,11.773,7.391,12,7.65,12c0.072,0,0.152-0.016,0.225-0.055l3.591-1.875
	C11.789,9.899,12,9.557,12,9.177V5.528C12,5.225,11.757,5.007,11.498,5.007z M11.191,9.168c0,0.109-0.057,0.188-0.105,0.21
	l-3.129,1.634V7.838c0-0.108,0.056-0.186,0.104-0.209l3.13-1.642V9.168z M10.94,4.206c0.169-0.085,0.251-0.233,0.234-0.373
	c0.017-0.148-0.065-0.288-0.234-0.374L7.285,1.624C7.123,1.538,6.938,1.499,6.744,1.499l0,0l0,0c-0.194,0-0.381,0.039-0.551,0.125
	L2.531,3.451C2.36,3.537,2.288,3.685,2.296,3.833C2.288,3.973,2.36,4.12,2.531,4.206l3.655,1.828
	c0.162,0.086,0.355,0.125,0.55,0.125c0,0,0,0,0.009,0c0,0,0,0,0.008,0c0.193,0,0.38-0.039,0.549-0.125L10.94,4.206z M6.735,5.38
	c-0.064,0-0.13-0.015-0.178-0.039L3.533,3.833l3.024-1.517c0.048-0.023,0.113-0.039,0.187-0.039c0.064,0,0.129,0.016,0.178,0.039
	l3.023,1.517L6.914,5.341C6.873,5.365,6.809,5.38,6.735,5.38z"/>
</svg>
