<?xml version="1.0" encoding="utf-8"?>
<!-- Generator: Adobe Illustrator 16.0.0, SVG Export Plug-In . SVG Version: 6.00 Build 0)  -->
<!DOCTYPE svg PUBLIC "-//W3C//DTD SVG 1.1//EN" "http://www.w3.org/Graphics/SVG/1.1/DTD/svg11.dtd">
<svg version="1.1" id="图层_1" xmlns="http://www.w3.org/2000/svg" xmlns:xlink="http://www.w3.org/1999/xlink" x="0px" y="0px"
	 width="14px" height="14px" viewBox="0 0 14 14" enable-background="new 0 0 14 14" xml:space="preserve">
<path fill="#666666" d="M11.146,3.571L7.181,2.169C7.122,2.147,7.062,2.138,6.999,2.138S6.875,2.148,6.815,2.17L2.866,3.571
	C2.653,3.646,2.503,3.846,2.503,4.068V7.39c0,0.742,0.243,1.483,0.709,2.204c0.356,0.553,0.853,1.095,1.468,1.61
	c1.028,0.864,2.047,1.362,2.09,1.383c0.076,0.037,0.158,0.055,0.24,0.055c0.081,0,0.162-0.018,0.236-0.053
	c0.043-0.021,1.063-0.511,2.092-1.371c0.615-0.514,1.105-1.057,1.462-1.61c0.464-0.723,0.696-1.469,0.696-2.218V4.068
	C11.497,3.846,11.358,3.646,11.146,3.571z M3.366,7.387V4.464c0-0.111,0.069-0.211,0.176-0.249l3.357-1.196C6.931,3.008,6.964,3,7,3
	v4.389L3.366,7.387z M9.2,10.225c-0.757,0.722-1.617,1.236-2.059,1.479c-0.041,0.022-0.105,0.034-0.141,0.034
	c0-0.083,0-4.253,0-4.348h3.659c0,0,0,0.005,0,0.008C10.659,8.354,10.167,9.303,9.2,10.225z"/>
</svg>
