<?xml version="1.0" encoding="utf-8"?>
<!-- Generator: Adobe Illustrator 16.0.0, SVG Export Plug-In . SVG Version: 6.00 Build 0)  -->
<!DOCTYPE svg PUBLIC "-//W3C//DTD SVG 1.1//EN" "http://www.w3.org/Graphics/SVG/1.1/DTD/svg11.dtd">
<svg version="1.1" id="图层_1" xmlns="http://www.w3.org/2000/svg" xmlns:xlink="http://www.w3.org/1999/xlink" x="0px" y="0px"
	 width="14px" height="14px" viewBox="0 0 14 14" enable-background="new 0 0 14 14" xml:space="preserve">
<path fill="#666666" d="M4.973,3.278c1.406-0.743,3.119-0.591,4.371,0.387c-0.195,0.64,0.165,1.318,0.807,1.513
	c0.642,0.196,1.321-0.164,1.518-0.804c0.196-0.64-0.164-1.317-0.807-1.513C10.513,2.754,10.135,2.81,9.83,3.012
	C8.3,1.832,6.212,1.67,4.517,2.6l0.018,0.016C4.724,2.805,4.873,3.03,4.973,3.278z M2.812,6.85c0-0.557,0.116-1.107,0.341-1.616
	H3.23c0.671,0.001,1.215-0.541,1.216-1.21c0.001-0.669-0.542-1.212-1.213-1.213S2.018,3.351,2.017,4.02
	c0,0.339,0.141,0.662,0.39,0.892c-1.073,2.454,0.05,5.309,2.51,6.381c0.011,0.006,0.021,0.008,0.032,0.014
	c0.004-0.279,0.067-0.555,0.183-0.807C3.716,9.832,2.813,8.411,2.812,6.85z M10.799,5.911c0.505,2.11-0.752,4.242-2.846,4.828
	c-0.309-0.594-1.04-0.828-1.637-0.521c-0.596,0.307-0.831,1.037-0.523,1.631c0.308,0.596,1.041,0.83,1.636,0.523
	c0.324-0.168,0.555-0.471,0.631-0.826c2.602-0.66,4.172-3.299,3.509-5.893c-0.001-0.011-0.005-0.021-0.007-0.032
	C11.329,5.768,11.07,5.867,10.799,5.911z"/>
</svg>
