<?xml version="1.0" encoding="utf-8"?>
<!-- Generator: Adobe Illustrator 16.0.0, SVG Export Plug-In . SVG Version: 6.00 Build 0)  -->
<!DOCTYPE svg PUBLIC "-//W3C//DTD SVG 1.1//EN" "http://www.w3.org/Graphics/SVG/1.1/DTD/svg11.dtd">
<svg version="1.1" id="图层_1" xmlns="http://www.w3.org/2000/svg" xmlns:xlink="http://www.w3.org/1999/xlink" x="0px" y="0px"
	 width="14px" height="14px" viewBox="0 0 14 14" enable-background="new 0 0 14 14" xml:space="preserve">
<g>
	<g>
		<path fill="#666666" d="M10.407,2H4.656C3.748,2,2.991,2.896,2.991,3.973v7.016c0,0.896,0.681,1.524,1.362,1.524
			c0.302,0,0.605-0.089,0.832-0.358l1.74-1.524c0.151-0.18,0.378-0.27,0.605-0.27s0.529,0.09,0.833,0.358l1.514,1.346
			c0.226,0.27,0.529,0.359,0.831,0.359c0.605,0,1.211-0.448,1.286-1.257V3.884C12.071,2.896,11.314,2,10.407,2z M11.415,10.876
			c-0.072,0.512-0.504,0.768-0.791,0.768c-0.215,0-0.359-0.086-0.574-0.256l-1.438-1.278C8.252,9.77,7.893,9.598,7.533,9.598
			c-0.288,0-0.575,0.086-0.79,0.342l-1.654,1.448c-0.144,0.17-0.359,0.17-0.503,0.17c-0.431,0-0.863-0.34-0.863-0.937V4.145
			c0-0.768,0.503-1.363,1.151-1.363h5.391v0.085c0.646,0,1.15,0.597,1.15,1.363V10.876z M9.282,4.814l-0.62-0.146
			c-0.206,0-0.345-0.146-0.413-0.291L7.974,3.797C7.905,3.579,7.698,3.506,7.491,3.506S7.077,3.579,7.009,3.797L6.733,4.378
			C6.665,4.523,6.526,4.669,6.319,4.669L5.7,4.814C5.287,4.887,5.08,5.396,5.424,5.759l0.482,0.437
			c0.138,0.146,0.207,0.29,0.138,0.509L5.906,7.357C5.837,7.721,6.113,8.012,6.458,8.012c0.068,0,0.137,0,0.275-0.072l0.551-0.291
			c0.069,0,0.139-0.072,0.207-0.072s0.138,0,0.275,0.072l0.551,0.291c0.069,0.072,0.139,0.072,0.276,0.072
			c0.345,0,0.62-0.291,0.551-0.654L9.007,6.704c0-0.219,0-0.363,0.138-0.509l0.413-0.437C9.902,5.396,9.696,4.887,9.282,4.814z
			 M9.064,5.503L8.7,5.887C8.458,6.078,8.397,6.398,8.458,6.654l0.121,0.575v0.063L8.519,7.357H8.458L7.852,7.102
			C7.73,7.037,7.608,6.974,7.487,6.974S7.245,7.037,7.124,7.102L6.578,7.357H6.518c-0.061,0-0.061,0-0.061-0.064V7.229l0.121-0.575
			c0-0.256-0.061-0.576-0.304-0.768L5.911,5.503c-0.061-0.064-0.061-0.064,0-0.128l0.061-0.064l0.546-0.063
			c0.243-0.064,0.485-0.192,0.606-0.512l0.242-0.512C7.427,4.16,7.427,4.16,7.487,4.16s0.061,0,0.121,0.063l0.243,0.512
			c0.122,0.256,0.364,0.447,0.606,0.512l0.545,0.063c0.062,0,0.062,0.064,0.062,0.064V5.503z"/>
	</g>
</g>
</svg>
