<?xml version="1.0" encoding="utf-8"?>
<!-- Generator: Adobe Illustrator 16.0.0, SVG Export Plug-In . SVG Version: 6.00 Build 0)  -->
<!DOCTYPE svg PUBLIC "-//W3C//DTD SVG 1.1//EN" "http://www.w3.org/Graphics/SVG/1.1/DTD/svg11.dtd">
<svg version="1.1" id="图层_1" xmlns="http://www.w3.org/2000/svg" xmlns:xlink="http://www.w3.org/1999/xlink" x="0px" y="0px"
	 width="14px" height="14px" viewBox="0 0 14 14" enable-background="new 0 0 14 14" xml:space="preserve">
<path fill="#666666" d="M3,4.75c-0.249,0-0.75,0.515-0.75,0.75v4.499c0,0.235,0.501,0.75,0.75,0.75h5.999
	c0.249,0,0.75-0.515,0.75-0.75V5.5c0-0.235-0.501-0.75-0.75-0.75H3z M3,4h5.999c0.704,0,1.5,0.834,1.5,1.5v4.499
	c0,0.667-0.796,1.5-1.5,1.5H3c-0.703,0-1.5-0.833-1.5-1.5V5.5C1.5,4.834,2.297,4,3,4z M3.984,3.277
	c-0.249,0-0.414-0.156-0.414-0.392s0.165-0.393,0.414-0.393h6.771c0.704,0,1.241,0.51,1.241,1.176v6.63
	c0,0.235-0.166,0.392-0.414,0.392s-0.414-0.156-0.414-0.392v-6.63c0-0.234-0.164-0.392-0.413-0.392H3.984z M5.302,7.668l-1.034-0.98
	c-0.165-0.157-0.165-0.393,0-0.549c0.166-0.157,0.414-0.157,0.579,0l0.868,0.823l0.869-0.823c0.165-0.157,0.414-0.157,0.578,0
	c0.166,0.156,0.166,0.392,0,0.549l-1.033,0.98V7.98h0.827c0.248,0,0.413,0.157,0.413,0.393S7.204,8.765,6.956,8.765H6.129v0.784
	c0,0.235-0.165,0.392-0.414,0.392c-0.248,0-0.413-0.156-0.413-0.392V8.765H4.475c-0.248,0-0.413-0.156-0.413-0.392
	S4.227,7.98,4.475,7.98h0.827V7.668z"/>
</svg>
