<?xml version="1.0" encoding="utf-8"?>
<!-- Generator: Adobe Illustrator 16.0.0, SVG Export Plug-In . SVG Version: 6.00 Build 0)  -->
<!DOCTYPE svg PUBLIC "-//W3C//DTD SVG 1.1//EN" "http://www.w3.org/Graphics/SVG/1.1/DTD/svg11.dtd">
<svg version="1.1" id="图层_1" xmlns="http://www.w3.org/2000/svg" xmlns:xlink="http://www.w3.org/1999/xlink" x="0px" y="0px"
	 width="14px" height="14px" viewBox="0 0 14 14" enable-background="new 0 0 14 14" xml:space="preserve">
<path fill="#666666" d="M2.906,6.832c0.61,0.613,1.398,0.914,2.197,0.914C5.78,7.746,6.445,7.523,7,7.089l2.804,2.838l-1.476,1.482
	l0.411,0.412l1.808-1.147L11.867,12l0.61-0.612L7.61,6.476C8.509,5.249,8.397,3.521,7.3,2.417C6.69,1.805,5.901,1.504,5.103,1.504
	S3.516,1.805,2.906,2.417C1.698,3.633,1.698,5.617,2.906,6.832z M3.539,3.054C3.96,2.629,4.515,2.396,5.103,2.396
	c0.588,0,1.154,0.233,1.564,0.658c0.865,0.868,0.865,2.285,0,3.154c-0.41,0.413-0.976,0.646-1.564,0.646
	c-0.588,0-1.154-0.233-1.564-0.658C2.674,5.328,2.674,3.922,3.539,3.054z"/>
</svg>
